<mxfile host="app.diagrams.net" modified="2022-03-09T19:33:31.116Z" agent="5.0 (Windows)" etag="2J92_R0cUBkpXIW4-SL8" version="16.5.6" type="github">
  <diagram id="ZaPGDOqyCcxBpjlw9346" name="Page-1">
    <mxGraphModel dx="1550" dy="824" grid="0" gridSize="10" guides="1" tooltips="1" connect="1" arrows="1" fold="1" page="1" pageScale="1" pageWidth="1100" pageHeight="850" math="0" shadow="0">
      <root>
        <mxCell id="0" />
        <mxCell id="1" parent="0" />
        <mxCell id="OYp5TFuLYKTN8M2JUODt-14" style="edgeStyle=orthogonalEdgeStyle;rounded=0;orthogonalLoop=1;jettySize=auto;html=1;entryX=0.625;entryY=0.2;entryDx=0;entryDy=0;entryPerimeter=0;strokeColor=#FF8000;exitX=0.5;exitY=1;exitDx=0;exitDy=0;exitPerimeter=0;" edge="1" parent="1" source="OYp5TFuLYKTN8M2JUODt-21" target="OYp5TFuLYKTN8M2JUODt-2">
          <mxGeometry relative="1" as="geometry" />
        </mxCell>
        <mxCell id="OYp5TFuLYKTN8M2JUODt-16" style="edgeStyle=orthogonalEdgeStyle;rounded=0;orthogonalLoop=1;jettySize=auto;html=1;exitX=1;exitY=0.3333333333333333;exitDx=0;exitDy=0;exitPerimeter=0;entryX=0.5;entryY=0;entryDx=0;entryDy=0;entryPerimeter=0;strokeColor=#FF8000;" edge="1" parent="1" source="OYp5TFuLYKTN8M2JUODt-1" target="OYp5TFuLYKTN8M2JUODt-18">
          <mxGeometry relative="1" as="geometry" />
        </mxCell>
        <mxCell id="OYp5TFuLYKTN8M2JUODt-22" style="edgeStyle=orthogonalEdgeStyle;rounded=0;orthogonalLoop=1;jettySize=auto;html=1;exitX=0;exitY=0.3333333333333333;exitDx=0;exitDy=0;exitPerimeter=0;entryX=0.5;entryY=0;entryDx=0;entryDy=0;entryPerimeter=0;strokeColor=#FF8000;" edge="1" parent="1" source="OYp5TFuLYKTN8M2JUODt-1" target="OYp5TFuLYKTN8M2JUODt-21">
          <mxGeometry relative="1" as="geometry" />
        </mxCell>
        <mxCell id="OYp5TFuLYKTN8M2JUODt-1" value="Learner" style="shape=umlActor;verticalLabelPosition=bottom;verticalAlign=top;html=1;outlineConnect=0;" vertex="1" parent="1">
          <mxGeometry x="412" y="30" width="30" height="60" as="geometry" />
        </mxCell>
        <mxCell id="OYp5TFuLYKTN8M2JUODt-5" style="edgeStyle=orthogonalEdgeStyle;rounded=0;orthogonalLoop=1;jettySize=auto;html=1;exitX=0.13;exitY=0.77;exitDx=0;exitDy=0;exitPerimeter=0;entryX=0.07;entryY=0.4;entryDx=0;entryDy=0;entryPerimeter=0;strokeColor=#009900;" edge="1" parent="1" source="OYp5TFuLYKTN8M2JUODt-2" target="OYp5TFuLYKTN8M2JUODt-3">
          <mxGeometry relative="1" as="geometry">
            <mxPoint x="157.5999999999999" y="410" as="sourcePoint" />
            <mxPoint x="295.29999999999995" y="690.5" as="targetPoint" />
            <Array as="points">
              <mxPoint x="193" y="410" />
              <mxPoint x="50" y="410" />
              <mxPoint x="50" y="554" />
              <mxPoint x="220" y="554" />
              <mxPoint x="220" y="662" />
            </Array>
          </mxGeometry>
        </mxCell>
        <mxCell id="OYp5TFuLYKTN8M2JUODt-10" value="Enrollment Data POST" style="edgeLabel;html=1;align=center;verticalAlign=middle;resizable=0;points=[];" vertex="1" connectable="0" parent="OYp5TFuLYKTN8M2JUODt-5">
          <mxGeometry x="-0.5225" y="-2" relative="1" as="geometry">
            <mxPoint x="62" y="-14" as="offset" />
          </mxGeometry>
        </mxCell>
        <mxCell id="OYp5TFuLYKTN8M2JUODt-29" value="&lt;div&gt;- GUID&lt;/div&gt;&lt;div&gt;- Course ID &lt;/div&gt;" style="edgeLabel;html=1;align=center;verticalAlign=middle;resizable=0;points=[];" vertex="1" connectable="0" parent="OYp5TFuLYKTN8M2JUODt-5">
          <mxGeometry x="-0.0606" y="-1" relative="1" as="geometry">
            <mxPoint x="48" y="-3" as="offset" />
          </mxGeometry>
        </mxCell>
        <mxCell id="OYp5TFuLYKTN8M2JUODt-24" style="edgeStyle=orthogonalEdgeStyle;rounded=0;orthogonalLoop=1;jettySize=auto;html=1;exitX=0.88;exitY=0.25;exitDx=0;exitDy=0;exitPerimeter=0;entryX=0.5;entryY=1;entryDx=0;entryDy=0;entryPerimeter=0;strokeColor=#FF8000;" edge="1" parent="1" source="OYp5TFuLYKTN8M2JUODt-2">
          <mxGeometry relative="1" as="geometry">
            <mxPoint x="330.79999999999995" y="342.5" as="sourcePoint" />
            <mxPoint x="568" y="250" as="targetPoint" />
          </mxGeometry>
        </mxCell>
        <mxCell id="OYp5TFuLYKTN8M2JUODt-25" value="Course Launch after enrollment" style="edgeLabel;html=1;align=center;verticalAlign=middle;resizable=0;points=[];" vertex="1" connectable="0" parent="OYp5TFuLYKTN8M2JUODt-24">
          <mxGeometry x="-0.0767" y="1" relative="1" as="geometry">
            <mxPoint x="-23" y="1" as="offset" />
          </mxGeometry>
        </mxCell>
        <mxCell id="OYp5TFuLYKTN8M2JUODt-2" value="PSA Learning System&lt;br&gt;(ELM)" style="ellipse;shape=cloud;whiteSpace=wrap;html=1;" vertex="1" parent="1">
          <mxGeometry x="172" y="320" width="160" height="130" as="geometry" />
        </mxCell>
        <mxCell id="OYp5TFuLYKTN8M2JUODt-6" style="edgeStyle=orthogonalEdgeStyle;rounded=0;orthogonalLoop=1;jettySize=auto;html=1;exitX=0.879;exitY=0.815;exitDx=0;exitDy=0;exitPerimeter=0;strokeColor=#009900;entryX=0;entryY=0.5;entryDx=0;entryDy=0;" edge="1" parent="1" source="OYp5TFuLYKTN8M2JUODt-3" target="OYp5TFuLYKTN8M2JUODt-31">
          <mxGeometry relative="1" as="geometry">
            <mxPoint x="750" y="675" as="targetPoint" />
            <Array as="points">
              <mxPoint x="498" y="716" />
              <mxPoint x="498" y="750" />
              <mxPoint x="680" y="750" />
              <mxPoint x="680" y="700" />
            </Array>
          </mxGeometry>
        </mxCell>
        <mxCell id="OYp5TFuLYKTN8M2JUODt-11" value="Enrollment Data GET" style="edgeLabel;html=1;align=center;verticalAlign=middle;resizable=0;points=[];" vertex="1" connectable="0" parent="OYp5TFuLYKTN8M2JUODt-6">
          <mxGeometry x="-0.2664" y="-3" relative="1" as="geometry">
            <mxPoint x="5" y="-2" as="offset" />
          </mxGeometry>
        </mxCell>
        <mxCell id="OYp5TFuLYKTN8M2JUODt-12" style="edgeStyle=orthogonalEdgeStyle;rounded=0;orthogonalLoop=1;jettySize=auto;html=1;exitX=0.4;exitY=0.1;exitDx=0;exitDy=0;exitPerimeter=0;entryX=0.55;entryY=0.95;entryDx=0;entryDy=0;entryPerimeter=0;strokeColor=#3333FF;" edge="1" parent="1" source="OYp5TFuLYKTN8M2JUODt-3" target="OYp5TFuLYKTN8M2JUODt-2">
          <mxGeometry relative="1" as="geometry">
            <Array as="points">
              <mxPoint x="408" y="525" />
              <mxPoint x="260" y="525" />
            </Array>
          </mxGeometry>
        </mxCell>
        <mxCell id="OYp5TFuLYKTN8M2JUODt-13" value="Completion Data GET" style="edgeLabel;html=1;align=center;verticalAlign=middle;resizable=0;points=[];" vertex="1" connectable="0" parent="OYp5TFuLYKTN8M2JUODt-12">
          <mxGeometry x="0.3305" y="1" relative="1" as="geometry">
            <mxPoint x="54" y="-6" as="offset" />
          </mxGeometry>
        </mxCell>
        <mxCell id="OYp5TFuLYKTN8M2JUODt-3" value="CDATA&lt;br&gt;(operational data store)" style="ellipse;shape=cloud;whiteSpace=wrap;html=1;" vertex="1" parent="1">
          <mxGeometry x="332" y="610" width="190" height="130" as="geometry" />
        </mxCell>
        <mxCell id="OYp5TFuLYKTN8M2JUODt-8" style="edgeStyle=orthogonalEdgeStyle;rounded=0;orthogonalLoop=1;jettySize=auto;html=1;exitX=0.07;exitY=0.4;exitDx=0;exitDy=0;exitPerimeter=0;entryX=0.625;entryY=0.2;entryDx=0;entryDy=0;entryPerimeter=0;strokeColor=#3333FF;" edge="1" parent="1" source="OYp5TFuLYKTN8M2JUODt-4" target="OYp5TFuLYKTN8M2JUODt-3">
          <mxGeometry relative="1" as="geometry">
            <mxPoint x="664.7" y="456" as="sourcePoint" />
            <mxPoint x="479.99999999999983" y="622.5" as="targetPoint" />
            <Array as="points">
              <mxPoint x="510" y="476" />
              <mxPoint x="510" y="590" />
              <mxPoint x="451" y="590" />
            </Array>
          </mxGeometry>
        </mxCell>
        <mxCell id="OYp5TFuLYKTN8M2JUODt-9" value="Completion Data POST" style="edgeLabel;html=1;align=center;verticalAlign=middle;resizable=0;points=[];" vertex="1" connectable="0" parent="OYp5TFuLYKTN8M2JUODt-8">
          <mxGeometry x="0.2253" relative="1" as="geometry">
            <mxPoint x="90" y="-69" as="offset" />
          </mxGeometry>
        </mxCell>
        <mxCell id="OYp5TFuLYKTN8M2JUODt-30" value="- GUID&lt;br&gt;- Course ID" style="edgeLabel;html=1;align=center;verticalAlign=middle;resizable=0;points=[];" vertex="1" connectable="0" parent="OYp5TFuLYKTN8M2JUODt-8">
          <mxGeometry x="0.282" y="1" relative="1" as="geometry">
            <mxPoint x="-12" y="-35" as="offset" />
          </mxGeometry>
        </mxCell>
        <mxCell id="OYp5TFuLYKTN8M2JUODt-4" value="PSA Moodle" style="ellipse;shape=cloud;whiteSpace=wrap;html=1;" vertex="1" parent="1">
          <mxGeometry x="672" y="420" width="170" height="140" as="geometry" />
        </mxCell>
        <mxCell id="OYp5TFuLYKTN8M2JUODt-19" style="edgeStyle=orthogonalEdgeStyle;rounded=0;orthogonalLoop=1;jettySize=auto;html=1;exitX=1;exitY=0.5;exitDx=0;exitDy=0;exitPerimeter=0;entryX=0.88;entryY=0.25;entryDx=0;entryDy=0;entryPerimeter=0;strokeColor=#FF8000;" edge="1" parent="1" source="OYp5TFuLYKTN8M2JUODt-18" target="OYp5TFuLYKTN8M2JUODt-4">
          <mxGeometry relative="1" as="geometry" />
        </mxCell>
        <mxCell id="OYp5TFuLYKTN8M2JUODt-23" value="&lt;p&gt;- Full name&lt;br&gt;- Email&lt;br&gt;- Phone number&lt;br&gt;- Job title&lt;br&gt;- Organization (e.g. ministry name)&lt;br&gt;- Department &lt;br&gt;- Office name and address&lt;/p&gt;" style="edgeLabel;html=1;align=center;verticalAlign=middle;resizable=0;points=[];" vertex="1" connectable="0" parent="OYp5TFuLYKTN8M2JUODt-19">
          <mxGeometry x="0.1133" y="-1" relative="1" as="geometry">
            <mxPoint y="33" as="offset" />
          </mxGeometry>
        </mxCell>
        <mxCell id="OYp5TFuLYKTN8M2JUODt-18" value="&lt;b&gt;Keycloak&lt;/b&gt;&lt;br&gt;Active Directory" style="shape=cylinder3;whiteSpace=wrap;html=1;boundedLbl=1;backgroundOutline=1;size=15;" vertex="1" parent="1">
          <mxGeometry x="490" y="150" width="140" height="100" as="geometry" />
        </mxCell>
        <mxCell id="OYp5TFuLYKTN8M2JUODt-21" value="&lt;b&gt;SiteMinder&lt;/b&gt;&lt;br&gt;Active Directory" style="shape=cylinder3;whiteSpace=wrap;html=1;boundedLbl=1;backgroundOutline=1;size=15;" vertex="1" parent="1">
          <mxGeometry x="230" y="150" width="140" height="100" as="geometry" />
        </mxCell>
        <mxCell id="OYp5TFuLYKTN8M2JUODt-26" value="&lt;div&gt;External &lt;br&gt;&lt;/div&gt;&lt;div&gt;Enrollment Database&lt;/div&gt;" style="shape=cylinder3;whiteSpace=wrap;html=1;boundedLbl=1;backgroundOutline=1;size=15;" vertex="1" parent="1">
          <mxGeometry x="830" y="570" width="130" height="80" as="geometry" />
        </mxCell>
        <mxCell id="OYp5TFuLYKTN8M2JUODt-28" value="" style="endArrow=classic;startArrow=classic;html=1;rounded=0;strokeColor=#00CC00;exitX=0;exitY=0;exitDx=0;exitDy=15;exitPerimeter=0;entryX=0.8;entryY=0.8;entryDx=0;entryDy=0;entryPerimeter=0;" edge="1" parent="1" source="OYp5TFuLYKTN8M2JUODt-26" target="OYp5TFuLYKTN8M2JUODt-4">
          <mxGeometry width="50" height="50" relative="1" as="geometry">
            <mxPoint x="770" y="580" as="sourcePoint" />
            <mxPoint x="820" y="530" as="targetPoint" />
          </mxGeometry>
        </mxCell>
        <mxCell id="OYp5TFuLYKTN8M2JUODt-32" style="edgeStyle=orthogonalEdgeStyle;rounded=0;orthogonalLoop=1;jettySize=auto;html=1;exitX=1;exitY=0.5;exitDx=0;exitDy=0;entryX=0.5;entryY=1;entryDx=0;entryDy=0;entryPerimeter=0;strokeColor=#00CC00;" edge="1" parent="1" source="OYp5TFuLYKTN8M2JUODt-31" target="OYp5TFuLYKTN8M2JUODt-26">
          <mxGeometry relative="1" as="geometry" />
        </mxCell>
        <mxCell id="OYp5TFuLYKTN8M2JUODt-33" value="POST" style="edgeLabel;html=1;align=center;verticalAlign=middle;resizable=0;points=[];" vertex="1" connectable="0" parent="OYp5TFuLYKTN8M2JUODt-32">
          <mxGeometry x="0.0074" y="1" relative="1" as="geometry">
            <mxPoint x="-18" y="1" as="offset" />
          </mxGeometry>
        </mxCell>
        <mxCell id="OYp5TFuLYKTN8M2JUODt-31" value="ETL" style="rhombus;whiteSpace=wrap;html=1;" vertex="1" parent="1">
          <mxGeometry x="730" y="660" width="80" height="80" as="geometry" />
        </mxCell>
      </root>
    </mxGraphModel>
  </diagram>
</mxfile>
